<svg width="142" height="120" viewBox="0 0 142 120" fill="none" xmlns="http://www.w3.org/2000/svg">
<g clip-path="url(#clip0)">
<path d="M28.9031 120C26.71 119.997 24.6076 119.125 23.0568 117.576C21.506 116.026 20.6335 113.925 20.6304 111.734V39.2204C20.6304 38.9885 20.5847 38.759 20.4959 38.5448C20.4071 38.3306 20.277 38.1359 20.1129 37.972C19.9488 37.808 19.754 37.678 19.5396 37.5892C19.3253 37.5005 19.0955 37.4549 18.8635 37.4549H8.25016C6.05706 37.4518 3.95466 36.58 2.40389 35.0305C0.853131 33.4809 -0.0194255 31.3802 -0.0224609 29.1889V8.26597C-0.0194255 6.07463 0.853131 3.97392 2.40389 2.4244C3.95466 0.87489 6.05706 0.00303491 8.25016 1.90735e-06H100.924C103.117 0.00303491 105.22 0.87489 106.771 2.4244C108.321 3.97392 109.194 6.07463 109.197 8.26597V29.1889C109.194 31.3802 108.321 33.4809 106.771 35.0305C105.22 36.58 103.117 37.4518 100.924 37.4549H92.3763C91.9077 37.4549 91.4582 37.6409 91.1269 37.972C90.7955 38.3031 90.6093 38.7521 90.6093 39.2204V111.734C90.6063 113.925 89.7338 116.026 88.183 117.576C86.6322 119.125 84.5298 119.997 82.3367 120H28.9031Z" fill="#1D1D1B"/>
<path d="M133.315 51.5907H111.893C107.457 51.5907 103.861 55.1837 103.861 59.6159V111.975C103.861 116.407 107.457 120 111.893 120H133.315C137.75 120 141.346 116.407 141.346 111.975V59.6159C141.346 55.1837 137.75 51.5907 133.315 51.5907Z" fill="#1D1D1B"/>
<path d="M55.2928 34.0155H24.3135V116.561H55.2928V34.0155Z" fill="white" stroke="#1D1D1B" stroke-miterlimit="10"/>
<path d="M87.7869 34.0155H55.293V116.561H87.7869V34.0155Z" fill="white" stroke="#1D1D1B" stroke-miterlimit="10"/>
<path d="M106.374 3.06105H3.66016V34.0155H106.374V3.06105Z" fill="white" stroke="#1D1D1B" stroke-miterlimit="10"/>
<path d="M94.4067 97.2886C93.2927 97.2912 92.2085 96.9287 91.3203 96.2568L75.7158 84.5629C75.0769 84.0833 74.5584 83.4618 74.2013 82.7475C73.8441 82.0332 73.6582 81.2456 73.6582 80.4471C73.6582 79.6486 73.8441 78.8611 74.2013 78.1468C74.5584 77.4324 75.0769 76.8109 75.7158 76.3313L91.3203 64.6374C92.2054 63.9679 93.2851 63.6056 94.3952 63.6056C95.7616 63.6056 97.072 64.148 98.0381 65.1133C99.0042 66.0787 99.547 67.388 99.547 68.7532V72.0436H104.722C106.088 72.0436 107.398 72.5859 108.365 73.5513C109.331 74.5166 109.873 75.826 109.873 77.1912V83.726C109.873 85.0912 109.331 86.4005 108.365 87.3659C107.398 88.3313 106.088 88.8736 104.722 88.8736H99.547V92.164C99.541 93.5232 98.9971 94.8249 98.0341 95.785C97.0711 96.7451 95.7671 97.2856 94.4067 97.2886Z" fill="#1D1D1B"/>
<path d="M137.904 116.561H106.925V85.6062H117.251H137.904V116.561Z" fill="#FEC65A" stroke="#1D1D1B" stroke-miterlimit="10"/>
<path d="M127.578 85.6062H117.252V95.9243H127.578V85.6062Z" fill="white" stroke="#1D1D1B" stroke-miterlimit="10"/>
<path d="M137.904 85.6062H106.925V54.6517H117.251H137.904V85.6062Z" fill="#FEC65A" stroke="#1D1D1B" stroke-miterlimit="10"/>
<path d="M127.578 54.6517H117.252V64.9699H127.578V54.6517Z" fill="white" stroke="#1D1D1B" stroke-miterlimit="10"/>
<path d="M36.1426 17.2772V10.043H39.4126V17.6211C39.4126 20.2121 40.1814 21.1293 41.7074 21.1293C43.2334 21.1293 44.0022 20.2121 44.0022 17.6211V10.043H47.1575V17.2772C47.1575 21.863 45.3217 23.961 41.6845 23.961C38.0473 23.961 36.1426 21.8859 36.1426 17.2772Z" fill="#1D1D1B"/>
<path d="M50.2207 10.043H55.0168C58.0344 10.043 60.5127 11.1092 60.5127 14.4798C60.5127 17.8504 58 19.1574 55.1086 19.1574H53.5137V23.7432H50.2207V10.043ZM54.9365 16.5778C56.5313 16.5778 57.3001 15.8212 57.3001 14.4913C57.3001 13.1614 56.4166 12.634 54.8332 12.634H53.4908V16.5778H54.925H54.9365Z" fill="#1D1D1B"/>
<path d="M61.7529 21.9891L63.6117 19.6962C64.533 20.5212 65.7046 21.0136 66.9391 21.0949C68.1553 21.0949 68.7176 20.6363 68.7176 19.9484C68.7176 19.2605 67.9603 18.9051 66.7899 18.4121L65.0459 17.6784C64.2508 17.4226 63.5556 16.9248 63.0577 16.2546C62.5598 15.5845 62.2841 14.7755 62.2692 13.941C62.2692 11.648 64.3231 9.81369 67.2259 9.81369C68.8844 9.8119 70.4779 10.4578 71.6663 11.6136L70.037 13.6658C69.2494 13.0028 68.2557 12.634 67.2259 12.6225C66.2162 12.6225 65.5967 13.0238 65.5967 13.769C65.5967 14.5142 66.4572 14.8123 67.6734 15.2938L69.383 15.9702C70.1826 16.2079 70.8809 16.7036 71.3687 17.3798C71.8565 18.0559 72.1064 18.8745 72.0794 19.7076C72.0794 22.0006 70.1632 23.9839 66.8588 23.9839C64.9687 23.9718 63.1499 23.2612 61.7529 21.9891Z" fill="#1D1D1B"/>
<path d="M96.5982 75.288V64.9699L75.9453 80.4471L96.5982 95.9243V85.6062H106.925V75.288H96.5982Z" fill="white" stroke="#1D1D1B" stroke-linecap="round" stroke-linejoin="round"/>
<path d="M65.6191 64.9699V75.288" stroke="#1D1D1B" stroke-width="2" stroke-linecap="round" stroke-linejoin="round"/>
<path d="M44.9658 64.9699V75.288" stroke="#1D1D1B" stroke-width="2" stroke-linecap="round" stroke-linejoin="round"/>
</g>
<defs>
<clipPath id="clip0">
<rect width="141.346" height="120" fill="white"/>
</clipPath>
</defs>
</svg>
